<svg width="84" height="84" viewBox="0 0 84 84" fill="none" xmlns="http://www.w3.org/2000/svg">
<path d="M42 74.8124C40.9557 74.8124 39.9542 74.3976 39.2158 73.6592C38.4773 72.9207 38.0625 71.9192 38.0625 70.8749V22.6406L21.1608 39.5456C20.4211 40.2853 19.4178 40.7008 18.3717 40.7008C17.3256 40.7008 16.3224 40.2853 15.5826 39.5456C14.8429 38.8058 14.4274 37.8026 14.4274 36.7565C14.4274 35.7104 14.8429 34.7071 15.5826 33.9674L39.2076 10.3424C39.5735 9.97535 40.0081 9.68409 40.4867 9.48536C40.9653 9.28663 41.4785 9.18433 41.9967 9.18433C42.5149 9.18433 43.0281 9.28663 43.5067 9.48536C43.9853 9.68409 44.42 9.97535 44.7858 10.3424L68.4108 33.9674C68.777 34.3337 69.0676 34.7685 69.2658 35.2471C69.464 35.7256 69.566 36.2385 69.566 36.7565C69.566 37.2745 69.464 37.7874 69.2658 38.2659C69.0676 38.7445 68.777 39.1793 68.4108 39.5456C68.0445 39.9118 67.6097 40.2024 67.1311 40.4006C66.6526 40.5988 66.1397 40.7008 65.6217 40.7008C65.1037 40.7008 64.5908 40.5988 64.1123 40.4006C63.6337 40.2024 63.1989 39.9118 62.8326 39.5456L45.9375 22.6406V70.8749C45.9375 71.9192 45.5226 72.9207 44.7842 73.6592C44.0458 74.3976 43.0443 74.8124 42 74.8124Z" fill="#FF9900"/>
</svg>
